<svg xmlns="http://www.w3.org/2000/svg" viewBox="0 0 400 300">
  <defs>
    <linearGradient id="bg2" x1="0%" y1="0%" x2="100%" y2="100%">
      <stop offset="0%" stop-color="#0f1923"/>
      <stop offset="100%" stop-color="#1a2a1a"/>
    </linearGradient>
  </defs>
  <rect width="400" height="300" fill="url(#bg2)"/>
  <!-- Lightbulb concept -->
  <ellipse cx="200" cy="130" rx="45" ry="50" fill="none" stroke="#ffd60a" stroke-width="2" opacity="0.7"/>
  <line x1="180" y1="175" x2="180" y2="190" stroke="#ffd60a" stroke-width="3"/>
  <line x1="220" y1="175" x2="220" y2="190" stroke="#ffd60a" stroke-width="3"/>
  <line x1="175" y1="195" x2="225" y2="195" stroke="#ffd60a" stroke-width="2.5"/>
  <line x1="178" y1="205" x2="222" y2="205" stroke="#ffd60a" stroke-width="2"/>
  <!-- Inner glow -->
  <ellipse cx="200" cy="130" rx="30" ry="35" fill="#ffd60a" opacity="0.08"/>
  <ellipse cx="200" cy="130" rx="15" ry="18" fill="#ffd60a" opacity="0.15"/>
  <!-- Rays -->
  <line x1="200" y1="65" x2="200" y2="50" stroke="#ffd60a" stroke-width="2" opacity="0.6"/>
  <line x1="245" y1="85" x2="258" y2="72" stroke="#ffd60a" stroke-width="2" opacity="0.6"/>
  <line x1="260" y1="130" x2="275" y2="130" stroke="#ffd60a" stroke-width="2" opacity="0.6"/>
  <line x1="155" y1="85" x2="142" y2="72" stroke="#ffd60a" stroke-width="2" opacity="0.6"/>
  <line x1="140" y1="130" x2="125" y2="130" stroke="#ffd60a" stroke-width="2" opacity="0.6"/>
  <!-- Speech bubble backbone -->
  <rect x="70" y="220" width="260" height="50" rx="8" fill="none" stroke="#00f5d4" stroke-width="1.5" opacity="0.5"/>
  <text x="200" y="240" text-anchor="middle" font-family="serif" font-size="10" fill="#00f5d4" opacity="0.9">発想 → 企画 → 構造化</text>
  <text x="200" y="258" text-anchor="middle" font-family="monospace" font-size="9" fill="#ffd60a" opacity="0.7">IDEATION &amp; PLANNING</text>
</svg>