<svg xmlns="http://www.w3.org/2000/svg" viewBox="0 0 400 300">
  <defs>
    <linearGradient id="bg5" x1="0%" y1="0%" x2="100%" y2="100%">
      <stop offset="0%" stop-color="#0f0f0f"/>
      <stop offset="100%" stop-color="#1a1a2e"/>
    </linearGradient>
  </defs>
  <rect width="400" height="300" fill="url(#bg5)"/>
  <!-- Paper/script visual -->
  <rect x="120" y="40" width="160" height="210" rx="4" fill="#1a1a1a" stroke="#444" stroke-width="1"/>
  <rect x="125" y="45" width="150" height="200" rx="3" fill="#111"/>
  <!-- Script lines -->
  <line x1="135" y1="65" x2="265" y2="65" stroke="#00f5d4" stroke-width="1.5" opacity="0.6"/>
  <line x1="150" y1="80" x2="250" y2="80" stroke="#ffffff" stroke-width="1" opacity="0.3"/>
  <line x1="150" y1="92" x2="260" y2="92" stroke="#ffffff" stroke-width="1" opacity="0.3"/>
  <line x1="135" y1="110" x2="200" y2="110" stroke="#ffd60a" stroke-width="1.5" opacity="0.7"/>
  <line x1="165" y1="122" x2="255" y2="122" stroke="#ffffff" stroke-width="1" opacity="0.3"/>
  <line x1="165" y1="134" x2="245" y2="134" stroke="#ffffff" stroke-width="1" opacity="0.3"/>
  <line x1="165" y1="146" x2="250" y2="146" stroke="#ffffff" stroke-width="1" opacity="0.3"/>
  <line x1="135" y1="164" x2="195" y2="164" stroke="#ffd60a" stroke-width="1.5" opacity="0.7"/>
  <line x1="165" y1="176" x2="255" y2="176" stroke="#ffffff" stroke-width="1" opacity="0.3"/>
  <line x1="165" y1="188" x2="240" y2="188" stroke="#ffffff" stroke-width="1" opacity="0.3"/>
  <!-- Camera icon -->
  <rect x="290" y="80" width="70" height="45" rx="5" fill="none" stroke="#f72585" stroke-width="2"/>
  <circle cx="325" cy="102" r="12" fill="none" stroke="#f72585" stroke-width="1.5"/>
  <circle cx="325" cy="102" r="5" fill="#f72585" opacity="0.5"/>
  <polygon points="360,92 375,102 360,112" fill="#f72585" opacity="0.8"/>
  <!-- "Show Don't Tell" -->
  <text x="200" y="268" text-anchor="middle" font-family="serif" font-style="italic" font-size="13" fill="#ffd60a" opacity="0.9">Show, Don't Tell</text>
  <line x1="80" y1="268" x2="140" y2="268" stroke="#ffd60a" stroke-width="1" opacity="0.4"/>
  <line x1="260" y1="268" x2="320" y2="268" stroke="#ffd60a" stroke-width="1" opacity="0.4"/>
</svg>